<?xml version="1.0" encoding="UTF-8"?>
<svg id="B_W_Main" data-name="B&amp;amp;W Main" xmlns="http://www.w3.org/2000/svg" viewBox="0 0 440.88 455.63">
  <defs>
    <style>
      .cls-1, .cls-2, .cls-3 {
        fill: #fff;
      }

      .cls-2 {
        stroke-width: 4.5px;
      }

      .cls-2, .cls-4, .cls-3 {
        stroke: #fff;
        stroke-linejoin: round;
      }

      .cls-4 {
        fill: none;
        stroke-linecap: round;
        stroke-width: 6px;
      }

      .cls-3 {
        stroke-width: 3px;
      }
    </style>
  </defs>
  <g id="Logo">
    <path class="cls-2" d="M258.81,59.81c-23.86,0-38.37,21.47-38.37,57.56,0-36.09-14.32-57.56-38.37-57.56,24.06,0,38.37-21.77,38.37-57.56,0,35.79,14.51,57.56,38.37,57.56Z"/>
    <g>
      <g>
        <polygon class="cls-1" points="392.95 242.8 392.95 320.47 392.2 320.47 382 310.98 370.84 300.6 344.46 276.06 330.93 262.64 341.69 250.24 336.85 231.56 343.41 209.07 392.95 242.8"/>
        <polygon class="cls-1" points="382 310.98 392.2 320.47 391.75 331.38 386.46 330.98 358.22 331.4 329.26 299.97 321.66 308.84 292.91 279.91 279.09 255.38 237.43 244.86 214.99 262.6 213.26 251.51 225.87 170.02 247.24 187.12 260.25 197.72 344.46 276.06 347.24 278.81 370.84 300.6 382 310.98"/>
        <polygon class="cls-1" points="370.84 300.6 347.24 278.81 344.46 276.06 370.84 300.6"/>
        <polygon class="cls-1" points="198.69 332.19 95.99 331.38 121.09 290.15 131.24 261.42 130.84 261.25 136.42 247.46 136.73 246.78 145.35 266.09 153.19 285.09 156.06 300.3 175.07 311.71 198.69 332.19"/>
        <polygon class="cls-1" points="136.73 246.78 136.42 247.46 136.71 246.74 136.73 246.78"/>
      </g>
      <g>
        <polygon class="cls-4" points="198.69 332.44 47.73 332.44 47.73 315.02 130.41 260.7 136.42 247.46 136.73 246.78 137.31 245.49 220.51 165.36 247.24 187.12 260.25 197.72 263.49 200.36 324.42 222.05 343.41 209.07 392.95 242.8 392.95 320.47 392.95 332.44 198.69 332.44"/>
        <polygon class="cls-4" points="198.69 332.19 95.99 331.38 121.09 290.15 131.24 261.42 130.84 261.25 136.42 247.46 136.71 246.74 136.73 246.78 145.35 266.09 153.19 285.09 156.06 300.3 175.07 311.71 198.69 332.19"/>
        <polyline class="cls-4" points="370.84 300.6 344.46 276.06 260.25 197.72 258.83 196.4 247.24 187.12 225.87 170.02 213.26 251.51 214.99 262.6 237.43 244.86 279.09 255.38 292.91 279.91 321.66 308.84 329.26 299.97 358.22 331.4 386.46 330.98 391.75 331.38 392.2 320.47 382 310.98"/>
        <polyline class="cls-4" points="343.41 209.07 336.85 231.56 341.69 250.24 330.93 262.64 344.46 276.06 347.24 278.81 370.84 300.6 382 310.98"/>
      </g>
    </g>
    <g>
      <path class="cls-3" d="M5.43,402.58c.55,0,.96,.29,1.24,.86l17.06,38.06,17.54-37.96c.34-.76,.9-1.03,1.68-.79,1.14,0,1.73,.53,1.78,1.59l1.87,40.85c.04,1.06-.5,1.59-1.62,1.59s-1.7-.53-1.74-1.59l-1.59-34.6c-1.18,2.54-2.56,5.5-4.12,8.88l-12.27,26.61c-.36,.51-.95,.76-1.78,.76-.61,0-1.06-.29-1.33-.86l-15.76-35.11c-.11,2.39-.23,5.23-.38,8.53l-1.11,25.69c-.11,1.08-.71,1.62-1.81,1.62s-1.63-.54-1.59-1.62l1.78-40.82c.04-1.06,.61-1.6,1.71-1.62l.44-.06Z"/>
      <path class="cls-3" d="M73.51,402.65c1.1,0,1.68,.54,1.74,1.62v40.82c0,1.08-.57,1.62-1.71,1.62s-1.68-.54-1.68-1.62v-40.82c0-1.08,.55-1.62,1.65-1.62Z"/>
      <path class="cls-3" d="M102.85,402.46c1.14,0,1.71,.55,1.71,1.65v39.13h16.97c1.08,0,1.62,.57,1.62,1.71s-.54,1.68-1.62,1.68h-18.58c-.36,0-.68-.1-.95-.29-.55-.3-.82-.76-.82-1.4v-40.85c0-1.1,.56-1.65,1.68-1.65Z"/>
      <path class="cls-3" d="M169.59,402.33c1.08,0,1.62,.56,1.62,1.68s-.54,1.71-1.62,1.71h-18.49v17.16h16.9c1.06,0,1.59,.56,1.59,1.68s-.53,1.71-1.59,1.71h-16.9v16.97h18.39c1.08,0,1.62,.57,1.62,1.71s-.54,1.68-1.62,1.68h-20.01c-.36,0-.68-.1-.95-.29-.55-.3-.82-.76-.82-1.4v-40.85c0-.63,.24-1.1,.73-1.4,.3-.23,.64-.36,1.05-.38h20.11Z"/>
      <path class="cls-3" d="M210.48,401.92c4.36,.06,8.37,1.53,12.05,4.41,.85,.68,.86,1.41,.03,2.19-.8,.78-1.65,.86-2.54,.22-4-3.13-8.35-4.13-13.07-3.01-4.78,1.23-6.83,3.92-6.15,8.09,.51,3.4,3.15,5.92,7.93,7.55l2.41,.76c1.16,.36,2,.62,2.51,.79,2.03,.66,3.68,1.31,4.95,1.97,3.59,1.84,5.65,4.41,6.15,7.71,1.06,7.08-2.15,11.7-9.61,13.86-7.13,2.05-13.32,.39-18.58-4.98-.72-.8-.69-1.59,.1-2.35,.78-.78,1.54-.79,2.28-.03,2.85,2.9,6.49,4.47,10.91,4.73,4.78,.27,8.27-1.33,10.47-4.82,2.96-4.78,1.74-8.53-3.65-11.26l-10.72-4c-1.16-.46-2.07-.9-2.73-1.3-3.53-2.2-5.41-5.35-5.65-9.45-.23-4.23,1.53-7.34,5.3-9.32,2.3-1.23,4.84-1.81,7.61-1.74Z"/>
      <path class="cls-3" d="M317.7,401.88c12.26,.85,18.34,8.24,18.24,22.17l-.1,.48c-.19,14.19-6.27,21.67-18.24,22.45h-.89c-11.8-.78-17.76-8.31-17.89-22.58l.1-.54c-.08-13.76,5.94-21.06,18.08-21.88,.23-.06,.46-.1,.7-.1Zm-.89,3.49c-9.79,.61-14.63,6.86-14.52,18.74l-.06,.51c.21,12.05,5.04,18.4,14.49,19.06h.79c9.85-.66,14.83-7.08,14.94-19.28l.1-.48c.06-11.82-4.92-18.03-14.94-18.65l-.79,.1Z"/>
      <path class="cls-3" d="M362.05,402.74c.93,0,1.49,.42,1.68,1.27l13.35,20.07c.66,.99,1.14,1.73,1.46,2.22,1.16,1.73,2.16,3.22,2.98,4.47,2.24,3.36,4.22,6.33,5.93,8.91v-35.33c0-1.08,.55-1.62,1.65-1.62s1.67,.54,1.71,1.62v40.82c0,.93-.47,1.46-1.4,1.59-.95,.13-1.58-.2-1.87-.98l-.19-.25c-2.92-4.38-6.85-10.29-11.8-17.73l-11.77-17.76v35.14c0,1.06-.57,1.59-1.71,1.59s-1.68-.53-1.68-1.59v-40.82c0-1.08,.55-1.62,1.65-1.62Z"/>
      <path class="cls-3" d="M437.76,402.33c1.08,0,1.62,.56,1.62,1.68s-.54,1.71-1.62,1.71h-18.49v17.16h16.9c1.06,0,1.59,.56,1.59,1.68s-.53,1.71-1.59,1.71h-16.9v16.97h18.39c1.08,0,1.62,.57,1.62,1.71s-.54,1.68-1.62,1.68h-20.01c-.36,0-.68-.1-.95-.29-.55-.3-.82-.76-.82-1.4v-40.85c0-.63,.24-1.1,.73-1.4,.3-.23,.64-.36,1.05-.38h20.11Z"/>
      <path class="cls-3" d="M282.03,424.76c-12.17,0-19.58,10.96-19.58,29.37,0-18.41-7.3-29.37-19.58-29.37,12.28,0,19.58-11.11,19.58-29.37,0,18.26,7.41,29.37,19.58,29.37Z"/>
    </g>
  </g>
</svg>