<?xml version="1.0" encoding="UTF-8"?>
<svg id="B_W_Main" data-name="B&amp;amp;W Main" xmlns="http://www.w3.org/2000/svg" viewBox="0 0 958.42 43.57">
  <defs>
    <style>
      .cls-1, .cls-2 {
        fill: #fff;
      }

      .cls-2 {
        stroke: #fff;
        stroke-miterlimit: 10;
        stroke-width: 10px;
      }
    </style>
  </defs>
  <g id="Motto">
    <path class="cls-1" d="M17.24,.3c6.34,.1,11.05,1.97,14.14,5.61,.62,.8,.57,1.55-.15,2.27s-1.44,.73-2.12-.03c-2.62-3-6.61-4.56-11.96-4.68C7.78,4.06,3.15,9.94,3.25,21.11l-.06,.48c.16,11.21,4.69,17.21,13.6,17.98l.36-.06c6.08-.1,10.55-1.69,13.39-4.77,.72-.7,1.43-.69,2.15,.03,.74,.74,.78,1.48,.12,2.24-3.46,3.6-8.57,5.49-15.33,5.67h-.72C5.8,41.8,.22,34.72,0,21.44l.09-.51C-.03,7.95,5.69,1.07,17.24,.3Z"/>
    <path class="cls-1" d="M65.35,30.34c-.21,8.58-3.87,12.87-10.99,12.87s-10.73-4.3-10.84-12.91c-.11-8.61,3.55-12.9,10.99-12.87,7.44,.03,11.05,4.33,10.84,12.91Zm-18.74-.06c.06,6.65,2.65,9.98,7.78,9.98s7.7-3.31,7.72-9.93c.02-6.62-2.57-9.95-7.78-9.98-5.21-.03-7.78,3.28-7.72,9.93Z"/>
    <path class="cls-1" d="M97.79,30.34c-.21,8.58-3.87,12.87-10.99,12.87s-10.73-4.3-10.84-12.91c-.11-8.61,3.55-12.9,10.99-12.87,7.44,.03,11.05,4.33,10.84,12.91Zm-18.74-.06c.06,6.65,2.65,9.98,7.78,9.98s7.7-3.31,7.72-9.93c.02-6.62-2.57-9.95-7.78-9.98-5.21-.03-7.78,3.28-7.72,9.93Z"/>
    <path class="cls-1" d="M119.09,17.56c.99-.08,1.49,.41,1.49,1.46s-.5,1.65-1.49,1.73c-4.85,.66-7.22,4.24-7.1,10.77v9.3c0,.99-.54,1.49-1.61,1.49s-1.58-.5-1.58-1.49V19.92c0-.99,.53-1.49,1.58-1.49s1.61,.5,1.61,1.49v1.67c1.87-2.5,4.23-3.85,7.1-4.03Z"/>
    <path class="cls-1" d="M154.18,1.64V40.86c0,1.01-.54,1.52-1.61,1.52s-1.58-.51-1.58-1.52v-1.43c-1.83,2.13-4.19,3.27-7.1,3.43h-.51c-7.87-.46-11.86-4.69-11.96-12.7-.1-7.93,3.89-12.14,11.96-12.61h.51c2.84,.18,5.21,1.32,7.1,3.43V1.64c0-1.01,.53-1.52,1.58-1.52s1.61,.51,1.61,1.52Zm-10.8,19.06c-5.96,.3-8.9,3.4-8.8,9.3,.1,6.16,3.03,9.42,8.8,9.78h.51c4.73-.32,7.1-3.53,7.1-9.63,.12-6.04-2.25-9.19-7.1-9.45h-.51Z"/>
    <path class="cls-1" d="M167.18,18.61c1.03,0,1.58,.5,1.64,1.49v20.73c0,.99-.54,1.49-1.61,1.49s-1.58-.5-1.58-1.49V20.1c0-.99,.52-1.49,1.55-1.49Zm.3-9.07c1.05,0,1.58,.53,1.58,1.58v.24c0,1.07-.53,1.61-1.58,1.61s-1.61-.54-1.61-1.61v-.24c0-.95,.54-1.48,1.61-1.58Z"/>
    <path class="cls-1" d="M182.59,18.79c1.03,0,1.58,.5,1.64,1.49v.54c1.73-1.95,3.91-2.97,6.53-3.07,6.52,0,9.72,4.01,9.6,12.02v11.18c0,.99-.53,1.49-1.58,1.49s-1.61-.5-1.61-1.49v-11.18c0-5.79-1.95-8.85-5.84-9.18-4.85,.24-7.22,3.33-7.1,9.27v11.09c0,.99-.54,1.49-1.61,1.49s-1.58-.5-1.58-1.49V20.28c0-.99,.52-1.49,1.55-1.49Z"/>
    <path class="cls-1" d="M223.56,17.56c2.84,.18,5.21,1.32,7.1,3.43v-.92c0-1.01,.53-1.52,1.58-1.52s1.61,.51,1.61,1.52v20.82c0,1.01-.54,1.52-1.61,1.52s-1.58-.51-1.58-1.52v-1.43c-1.83,2.13-4.19,3.28-7.1,3.46h-.51c-7.87-.46-11.86-4.75-11.96-12.88-.1-7.81,3.89-11.97,11.96-12.47h.51Zm-.51,3.16c-5.94,.3-8.88,3.45-8.8,9.45,0,6.06,2.93,9.27,8.8,9.63h.51c4.61-.38,6.98-3.64,7.1-9.78,.12-5.86-2.25-8.97-7.1-9.3l-.27-.03-.24,.03Z"/>
    <path class="cls-1" d="M251.02,41.45c-1.85-1.35-2.79-3.19-2.83-5.52l-.09-14.28h-3.1c-.99,0-1.49-.53-1.49-1.58s.5-1.61,1.49-1.61h3.1v-5.43c.04-.99,.59-1.49,1.64-1.49s1.55,.5,1.55,1.49v5.43h4c1.01,0,1.52,.54,1.52,1.61s-.51,1.58-1.52,1.58h-4v13.78c0,1.53,.45,2.64,1.34,3.34,1.39,1.01,2.78,1.1,4.17,.27,.83-.56,1.52-.39,2.06,.51,.52,.89,.36,1.61-.48,2.15-1.01,.7-2.25,1.01-3.7,.95-1.41-.06-2.63-.46-3.67-1.19Z"/>
    <path class="cls-1" d="M279.4,17.27c2.88,.36,5.16,1.37,6.83,3.04,2.37,2.47,3.59,5.23,3.67,8.29,0,.2-.03,.39-.09,.57-.12,.91-.62,1.37-1.49,1.37h-16.1c.34,5.49,2.48,8.45,6.41,8.89,1.37,0,2.66-.22,3.88-.66,1.27-.44,2.27-1.06,2.98-1.88,.66-.76,1.36-.76,2.12,0,.76,.76,.79,1.5,.12,2.24-1.85,2.09-4.65,3.23-8.41,3.43l-.81-.03c-6.24-.68-9.41-4.9-9.51-12.67l.09-.51c.06-7.32,3.16-11.33,9.3-12.05l1.01-.03Zm-.42,3.13c-3.6,.28-5.79,2.59-6.56,6.95h14.14c-.36-1.81-1.22-3.4-2.59-4.77-1.27-1.27-2.93-2-4.98-2.18Z"/>
    <path class="cls-2" d="M343.31,20.19c.9,0,1.34,.45,1.34,1.34v.2c0,.9-.45,1.34-1.34,1.34s-1.34-.45-1.34-1.34v-.2c0-.81,.45-1.26,1.34-1.34Z"/>
    <path class="cls-1" d="M419.18,.66c1.01,0,1.52,.53,1.52,1.58s-.51,1.61-1.52,1.61h-17.39V19.98h15.89c.99,0,1.49,.53,1.49,1.58s-.5,1.61-1.49,1.61h-15.89v15.95h17.3c1.01,0,1.52,.54,1.52,1.61s-.51,1.58-1.52,1.58h-18.82c-.34,0-.64-.09-.89-.27-.52-.28-.78-.72-.78-1.31V2.33c0-.6,.23-1.03,.69-1.31,.28-.22,.61-.34,.98-.36h18.91Z"/>
    <path class="cls-1" d="M433.85,17.89c.42-.02,.79,.16,1.1,.54l7.19,9.01c3.28-4.1,5.69-7.1,7.22-9.01,.4-.44,.88-.61,1.45-.52s.96,.41,1.18,.95c.22,.55,.09,1.16-.39,1.83l-7.43,9.3,7.93,9.93c.6,.8,.53,1.57-.21,2.33-.74,.74-1.42,.72-2.06-.06l-7.69-9.66c-3.44,4.31-6,7.53-7.69,9.66-.66,.76-1.35,.77-2.09,.03-.74-.74-.79-1.5-.15-2.3l5.93-7.46c.4-.5,1.05-1.32,1.97-2.48l-7.43-9.3c-.44-.58-.5-1.19-.18-1.85,.3-.62,.75-.93,1.34-.95Z"/>
    <path class="cls-1" d="M473.36,17.27c2.88,.36,5.16,1.37,6.83,3.04,2.37,2.47,3.59,5.23,3.67,8.29,0,.2-.03,.39-.09,.57-.12,.91-.62,1.37-1.49,1.37h-16.1c.34,5.49,2.48,8.45,6.41,8.89,1.37,0,2.66-.22,3.88-.66,1.27-.44,2.27-1.06,2.98-1.88,.66-.76,1.36-.76,2.12,0,.76,.76,.79,1.5,.12,2.24-1.85,2.09-4.65,3.23-8.41,3.43l-.81-.03c-6.24-.68-9.41-4.9-9.51-12.67l.09-.51c.06-7.32,3.16-11.33,9.3-12.05l1.01-.03Zm-.42,3.13c-3.6,.28-5.79,2.59-6.56,6.95h14.14c-.36-1.81-1.22-3.4-2.59-4.77-1.27-1.27-2.93-2-4.98-2.18Z"/>
    <path class="cls-1" d="M503.92,17.56h.06c3.48,0,6.12,1.11,7.93,3.34,.6,.8,.53,1.57-.21,2.33-.74,.76-1.42,.74-2.06-.06-1.25-1.49-3.16-2.3-5.73-2.42-4.61,.34-6.86,3.43-6.74,9.27l-.06,.45c.22,5.75,2.38,8.85,6.47,9.3,1.27,0,2.55-.23,3.85-.69,1.27-.44,2.27-1.06,2.98-1.88,.66-.76,1.36-.76,2.12,0,.76,.76,.79,1.51,.12,2.27-1.85,2.07-4.65,3.2-8.41,3.4-.26,0-.53-.01-.81-.03-6.24-.68-9.41-4.9-9.51-12.67l.09-.51c.08-7.65,3.38-11.69,9.9-12.11Z"/>
    <path class="cls-1" d="M541.84,42.26c-1.05,0-1.6-.51-1.64-1.52v-.51c-1.73,2.23-4.16,3.34-7.28,3.34-6.02-.38-8.98-4.48-8.86-12.32v-11.24c0-1.01,.53-1.52,1.58-1.52s1.61,.51,1.61,1.52v11.24c0,5.81,1.94,8.9,5.82,9.27,4.75,0,7.13-3.11,7.13-9.33v-11.18c0-1.01,.54-1.52,1.61-1.52s1.58,.51,1.58,1.52v20.73c0,1.01-.52,1.52-1.55,1.52Z"/>
    <path class="cls-1" d="M560.86,41.45c-1.85-1.35-2.79-3.19-2.83-5.52l-.09-14.28h-3.1c-.99,0-1.49-.53-1.49-1.58s.5-1.61,1.49-1.61h3.1v-5.43c.04-.99,.59-1.49,1.64-1.49s1.55,.5,1.55,1.49v5.43h4c1.01,0,1.52,.54,1.52,1.61s-.51,1.58-1.52,1.58h-4v13.78c0,1.53,.45,2.64,1.34,3.34,1.39,1.01,2.78,1.1,4.17,.27,.83-.56,1.52-.39,2.06,.51,.52,.89,.36,1.61-.48,2.15-1.01,.7-2.25,1.01-3.7,.95-1.41-.06-2.63-.46-3.67-1.19Z"/>
    <path class="cls-1" d="M589.25,17.27c2.88,.36,5.16,1.37,6.83,3.04,2.37,2.47,3.59,5.23,3.67,8.29,0,.2-.03,.39-.09,.57-.12,.91-.62,1.37-1.49,1.37h-16.1c.34,5.49,2.48,8.45,6.41,8.89,1.37,0,2.66-.22,3.88-.66,1.27-.44,2.27-1.06,2.98-1.88,.66-.76,1.36-.76,2.12,0,.76,.76,.79,1.5,.12,2.24-1.85,2.09-4.65,3.23-8.41,3.43l-.81-.03c-6.24-.68-9.41-4.9-9.51-12.67l.09-.51c.06-7.32,3.16-11.33,9.3-12.05l1.01-.03Zm-.42,3.13c-3.6,.28-5.79,2.59-6.56,6.95h14.14c-.36-1.81-1.22-3.4-2.59-4.77-1.27-1.27-2.93-2-4.98-2.18Z"/>
    <path class="cls-2" d="M653.15,20.19c.9,0,1.34,.45,1.34,1.34v.2c0,.9-.45,1.34-1.34,1.34s-1.34-.45-1.34-1.34v-.2c0-.81,.45-1.26,1.34-1.34Z"/>
    <path class="cls-1" d="M712.24,.89c.52,0,.9,.27,1.16,.81l16.04,35.79L745.94,1.79c.32-.72,.84-.96,1.58-.75,1.07,0,1.63,.5,1.67,1.49l1.76,38.41c.04,.99-.47,1.49-1.52,1.49s-1.6-.5-1.64-1.49l-1.49-32.53c-1.11,2.39-2.41,5.17-3.88,8.35l-11.54,25.02c-.34,.48-.89,.72-1.67,.72-.58,0-.99-.27-1.25-.81l-14.82-33.01c-.1,2.25-.22,4.92-.36,8.02l-1.04,24.16c-.1,1.01-.67,1.52-1.7,1.52s-1.53-.51-1.49-1.52l1.67-38.38c.04-.99,.58-1.5,1.61-1.52l.42-.06Z"/>
    <path class="cls-1" d="M763.58,18.61c1.03,0,1.58,.5,1.64,1.49v20.73c0,.99-.54,1.49-1.61,1.49s-1.58-.5-1.58-1.49V20.1c0-.99,.52-1.49,1.55-1.49Zm.3-9.07c1.05,0,1.58,.53,1.58,1.58v.24c0,1.07-.53,1.61-1.58,1.61s-1.61-.54-1.61-1.61v-.24c0-.95,.54-1.48,1.61-1.58Z"/>
    <path class="cls-1" d="M779,0c1.03,0,1.58,.5,1.64,1.49V40.83c0,.99-.54,1.49-1.61,1.49s-1.58-.5-1.58-1.49V1.49c0-.99,.52-1.49,1.55-1.49Z"/>
    <path class="cls-1" d="M801.77,17.27c2.88,.36,5.16,1.37,6.83,3.04,2.37,2.47,3.59,5.23,3.67,8.29,0,.2-.03,.39-.09,.57-.12,.91-.62,1.37-1.49,1.37h-16.1c.34,5.49,2.48,8.45,6.41,8.89,1.37,0,2.66-.22,3.88-.66,1.27-.44,2.27-1.06,2.98-1.88,.66-.76,1.36-.76,2.12,0,.76,.76,.79,1.5,.12,2.24-1.85,2.09-4.65,3.23-8.41,3.43l-.81-.03c-6.24-.68-9.41-4.9-9.51-12.67l.09-.51c.06-7.32,3.16-11.33,9.3-12.05l1.01-.03Zm-.42,3.13c-3.6,.28-5.79,2.59-6.56,6.95h14.14c-.36-1.81-1.22-3.4-2.59-4.77-1.27-1.27-2.93-2-4.98-2.18Z"/>
    <path class="cls-1" d="M830.75,17.65c2.56-.02,4.99,.79,7.28,2.42,.79,.6,.93,1.35,.42,2.27-.52,.91-1.21,1.1-2.09,.57-1.73-1.23-3.54-1.89-5.43-1.97-2.5-.1-3.87,.95-4.09,3.16-.18,1.93,1.48,3.46,4.98,4.59l3.19,1.16c4.04,1.83,5.6,4.53,4.68,8.11-.93,3.44-3.4,5.25-7.4,5.43-3.66,.16-6.74-.92-9.24-3.25-.72-.72-.71-1.43,.03-2.15,.74-.74,1.48-.78,2.24-.12,1.91,1.75,4.08,2.53,6.5,2.36,2.09-.1,3.58-.85,4.47-2.27,1.01-1.55,.59-3.14-1.28-4.77-.7-.58-1.6-1.06-2.71-1.46-.4-.14-.88-.3-1.46-.48l-.75-.21c-.32-.08-.57-.15-.75-.21-1.19-.34-2.13-.72-2.8-1.13-.93-.56-1.68-1.31-2.24-2.27-.95-1.79-1.07-3.59-.36-5.4,.72-1.81,1.84-3.02,3.37-3.64,1.05-.48,2.2-.73,3.43-.75Z"/>
    <path class="cls-1" d="M856.66,41.45c-1.85-1.35-2.79-3.19-2.83-5.52l-.09-14.28h-3.1c-.99,0-1.49-.53-1.49-1.58s.5-1.61,1.49-1.61h3.1v-5.43c.04-.99,.59-1.49,1.64-1.49s1.55,.5,1.55,1.49v5.43h4c1.01,0,1.52,.54,1.52,1.61s-.51,1.58-1.52,1.58h-4v13.78c0,1.53,.45,2.64,1.34,3.34,1.39,1.01,2.78,1.1,4.17,.27,.83-.56,1.52-.39,2.06,.51,.52,.89,.36,1.61-.48,2.15-1.01,.7-2.25,1.01-3.7,.95-1.41-.06-2.63-.46-3.67-1.19Z"/>
    <path class="cls-1" d="M896.72,30.34c-.21,8.58-3.87,12.87-10.99,12.87s-10.73-4.3-10.84-12.91c-.11-8.61,3.55-12.9,10.99-12.87,7.44,.03,11.05,4.33,10.84,12.91Zm-18.74-.06c.06,6.65,2.65,9.98,7.78,9.98s7.7-3.31,7.72-9.93c.02-6.62-2.57-9.95-7.78-9.98-5.21-.03-7.78,3.28-7.72,9.93Z"/>
    <path class="cls-1" d="M909.34,18.79c1.03,0,1.58,.5,1.64,1.49v.54c1.73-1.95,3.91-2.97,6.53-3.07,6.52,0,9.72,4.01,9.6,12.02v11.18c0,.99-.53,1.49-1.58,1.49s-1.61-.5-1.61-1.49v-11.18c0-5.79-1.95-8.85-5.84-9.18-4.85,.24-7.22,3.33-7.1,9.27v11.09c0,.99-.54,1.49-1.61,1.49s-1.58-.5-1.58-1.49V20.28c0-.99,.52-1.49,1.55-1.49Z"/>
    <path class="cls-1" d="M947.93,17.27c2.88,.36,5.16,1.37,6.83,3.04,2.37,2.47,3.59,5.23,3.67,8.29,0,.2-.03,.39-.09,.57-.12,.91-.62,1.37-1.49,1.37h-16.1c.34,5.49,2.48,8.45,6.41,8.89,1.37,0,2.66-.22,3.88-.66,1.27-.44,2.27-1.06,2.98-1.88,.66-.76,1.36-.76,2.12,0,.76,.76,.79,1.5,.12,2.24-1.85,2.09-4.65,3.23-8.41,3.43l-.81-.03c-6.24-.68-9.41-4.9-9.51-12.67l.09-.51c.06-7.32,3.16-11.33,9.3-12.05l1.01-.03Zm-.42,3.13c-3.6,.28-5.79,2.59-6.56,6.95h14.14c-.36-1.81-1.22-3.4-2.59-4.77-1.27-1.27-2.93-2-4.98-2.18Z"/>
  </g>
</svg>